<svg width="466" height="88" viewBox="0 0 466 88" fill="none" xmlns="http://www.w3.org/2000/svg">
<rect width="14" height="74" fill="#0E0E10"/>
<rect x="18" y="37" width="15" height="37" fill="#0E0E10"/>
<rect x="37" y="18" width="14" height="56" fill="#0E0E10"/>
<path d="M73.5455 74H67.6364L84.7273 27.4545H90.5455L107.636 74H101.727L87.8182 34.8182H87.4545L73.5455 74ZM75.7273 55.8182H99.5455V60.8182H75.7273V55.8182ZM119.523 27.4545V74H114.159V27.4545H119.523ZM143.438 87.8182C140.847 87.8182 138.619 87.4848 136.756 86.8182C134.892 86.1667 133.339 85.303 132.097 84.2273C130.869 83.1667 129.892 82.0303 129.165 80.8182L133.438 77.8182C133.922 78.4545 134.536 79.1818 135.278 80C136.021 80.8333 137.036 81.553 138.324 82.1591C139.627 82.7803 141.331 83.0909 143.438 83.0909C146.256 83.0909 148.581 82.4091 150.415 81.0455C152.248 79.6818 153.165 77.5455 153.165 74.6364V67.5455H152.71C152.316 68.1818 151.756 68.9697 151.028 69.9091C150.316 70.8333 149.286 71.6591 147.938 72.3864C146.604 73.0985 144.801 73.4545 142.528 73.4545C139.71 73.4545 137.18 72.7879 134.938 71.4545C132.71 70.1212 130.945 68.1818 129.642 65.6364C128.354 63.0909 127.71 60 127.71 56.3636C127.71 52.7879 128.339 49.6742 129.597 47.0227C130.854 44.3561 132.604 42.2955 134.847 40.8409C137.089 39.3712 139.68 38.6364 142.619 38.6364C144.892 38.6364 146.695 39.0152 148.028 39.7727C149.377 40.5152 150.407 41.3636 151.119 42.3182C151.847 43.2576 152.407 44.0303 152.801 44.6364H153.347V39.0909H158.528V75C158.528 78 157.847 80.4394 156.483 82.3182C155.134 84.2121 153.316 85.5985 151.028 86.4773C148.756 87.3712 146.225 87.8182 143.438 87.8182ZM143.256 68.6364C145.407 68.6364 147.225 68.1439 148.71 67.1591C150.195 66.1742 151.324 64.7576 152.097 62.9091C152.869 61.0606 153.256 58.8485 153.256 56.2727C153.256 53.7576 152.877 51.5379 152.119 49.6136C151.362 47.6894 150.241 46.1818 148.756 45.0909C147.271 44 145.438 43.4545 143.256 43.4545C140.983 43.4545 139.089 44.0303 137.574 45.1818C136.074 46.3333 134.945 47.8788 134.188 49.8182C133.445 51.7576 133.074 53.9091 133.074 56.2727C133.074 58.697 133.453 60.8409 134.21 62.7045C134.983 64.553 136.119 66.0076 137.619 67.0682C139.134 68.1136 141.013 68.6364 143.256 68.6364ZM182.528 74.7273C179.377 74.7273 176.612 73.9773 174.233 72.4773C171.869 70.9773 170.021 68.8788 168.688 66.1818C167.369 63.4848 166.71 60.3333 166.71 56.7273C166.71 53.0909 167.369 49.9167 168.688 47.2045C170.021 44.4924 171.869 42.3864 174.233 40.8864C176.612 39.3864 179.377 38.6364 182.528 38.6364C185.68 38.6364 188.438 39.3864 190.801 40.8864C193.18 42.3864 195.028 44.4924 196.347 47.2045C197.68 49.9167 198.347 53.0909 198.347 56.7273C198.347 60.3333 197.68 63.4848 196.347 66.1818C195.028 68.8788 193.18 70.9773 190.801 72.4773C188.438 73.9773 185.68 74.7273 182.528 74.7273ZM182.528 69.9091C184.922 69.9091 186.892 69.2955 188.438 68.0682C189.983 66.8409 191.127 65.2273 191.869 63.2273C192.612 61.2273 192.983 59.0606 192.983 56.7273C192.983 54.3939 192.612 52.2197 191.869 50.2045C191.127 48.1894 189.983 46.5606 188.438 45.3182C186.892 44.0758 184.922 43.4545 182.528 43.4545C180.134 43.4545 178.165 44.0758 176.619 45.3182C175.074 46.5606 173.93 48.1894 173.188 50.2045C172.445 52.2197 172.074 54.3939 172.074 56.7273C172.074 59.0606 172.445 61.2273 173.188 63.2273C173.93 65.2273 175.074 66.8409 176.619 68.0682C178.165 69.2955 180.134 69.9091 182.528 69.9091ZM207.261 74V27.4545H222.989C226.625 27.4545 229.61 28.0758 231.943 29.3182C234.277 30.5455 236.004 32.2348 237.125 34.3864C238.246 36.5379 238.807 38.9848 238.807 41.7273C238.807 44.4697 238.246 46.9015 237.125 49.0227C236.004 51.1439 234.284 52.8106 231.966 54.0227C229.648 55.2197 226.686 55.8182 223.08 55.8182H210.352V50.7273H222.898C225.383 50.7273 227.383 50.3636 228.898 49.6364C230.428 48.9091 231.534 47.8788 232.216 46.5455C232.913 45.197 233.261 43.5909 233.261 41.7273C233.261 39.8636 232.913 38.2348 232.216 36.8409C231.519 35.447 230.405 34.3712 228.875 33.6136C227.345 32.8409 225.322 32.4545 222.807 32.4545H212.898V74H207.261ZM229.17 53.0909L240.625 74H234.08L222.807 53.0909H229.17ZM252.835 53V74H247.472V27.4545H252.835V44.5455H253.29C254.108 42.7424 255.335 41.3106 256.972 40.25C258.623 39.1742 260.82 38.6364 263.562 38.6364C265.941 38.6364 268.025 39.1136 269.812 40.0682C271.6 41.0076 272.987 42.4545 273.972 44.4091C274.972 46.3485 275.472 48.8182 275.472 51.8182V74H270.108V52.1818C270.108 49.4091 269.388 47.2652 267.949 45.75C266.525 44.2197 264.547 43.4545 262.017 43.4545C260.259 43.4545 258.684 43.8258 257.29 44.5682C255.911 45.3106 254.82 46.3939 254.017 47.8182C253.229 49.2424 252.835 50.9697 252.835 53ZM287.489 87.0909C286.58 87.0909 285.769 87.0152 285.057 86.8636C284.345 86.7273 283.852 86.5909 283.58 86.4545L284.943 81.7273C286.246 82.0606 287.398 82.1818 288.398 82.0909C289.398 82 290.284 81.553 291.057 80.75C291.845 79.9621 292.564 78.6818 293.216 76.9091L294.216 74.1818L281.307 39.0909H287.125L296.761 66.9091H297.125L306.761 39.0909H312.58L297.761 79.0909C297.095 80.8939 296.269 82.3864 295.284 83.5682C294.299 84.7652 293.155 85.6515 291.852 86.2273C290.564 86.803 289.11 87.0909 287.489 87.0909ZM334.841 39.0909V43.6364H316.75V39.0909H334.841ZM322.023 30.7273H327.386V64C327.386 65.5152 327.606 66.6515 328.045 67.4091C328.5 68.1515 329.076 68.6515 329.773 68.9091C330.485 69.1515 331.235 69.2727 332.023 69.2727C332.614 69.2727 333.098 69.2424 333.477 69.1818C333.856 69.1061 334.159 69.0455 334.386 69L335.477 73.8182C335.114 73.9545 334.606 74.0909 333.955 74.2273C333.303 74.3788 332.477 74.4545 331.477 74.4545C329.962 74.4545 328.477 74.1288 327.023 73.4773C325.583 72.8258 324.386 71.8333 323.432 70.5C322.492 69.1667 322.023 67.4848 322.023 65.4545V30.7273ZM349.023 53V74H343.659V27.4545H349.023V44.5455H349.477C350.295 42.7424 351.523 41.3106 353.159 40.25C354.811 39.1742 357.008 38.6364 359.75 38.6364C362.129 38.6364 364.212 39.1136 366 40.0682C367.788 41.0076 369.174 42.4545 370.159 44.4091C371.159 46.3485 371.659 48.8182 371.659 51.8182V74H366.295V52.1818C366.295 49.4091 365.576 47.2652 364.136 45.75C362.712 44.2197 360.735 43.4545 358.205 43.4545C356.447 43.4545 354.871 43.8258 353.477 44.5682C352.098 45.3106 351.008 46.3939 350.205 47.8182C349.417 49.2424 349.023 50.9697 349.023 53ZM381.472 74V39.0909H386.653V44.5455H387.108C387.835 42.6818 389.009 41.2348 390.631 40.2045C392.252 39.1591 394.199 38.6364 396.472 38.6364C398.775 38.6364 400.691 39.1591 402.222 40.2045C403.767 41.2348 404.972 42.6818 405.835 44.5455H406.199C407.093 42.7424 408.434 41.3106 410.222 40.25C412.009 39.1742 414.153 38.6364 416.653 38.6364C419.775 38.6364 422.328 39.6136 424.312 41.5682C426.297 43.5076 427.29 46.5303 427.29 50.6364V74H421.926V50.6364C421.926 48.0606 421.222 46.2197 419.812 45.1136C418.403 44.0076 416.744 43.4545 414.835 43.4545C412.381 43.4545 410.479 44.197 409.131 45.6818C407.782 47.1515 407.108 49.0152 407.108 51.2727V74H401.653V50.0909C401.653 48.1061 401.009 46.5076 399.722 45.2955C398.434 44.0682 396.775 43.4545 394.744 43.4545C393.35 43.4545 392.047 43.8258 390.835 44.5682C389.638 45.3106 388.669 46.3409 387.926 47.6591C387.199 48.9621 386.835 50.4697 386.835 52.1818V74H381.472Z" fill="#0E0E10"/>
</svg>
