
      <svg data-logo="logo" xmlns="http://www.w3.org/2000/svg" viewBox="0 0 54 41">
        <g id="logogram" transform="translate(0, 0) rotate(0) "><path d="M18.4747 0.600006H29.1542L24.8675 12.5796C17.3225 13.9055 11.5517 21.2053 11.5517 30.0118C11.5517 33.9845 12.7261 37.6506 14.7079 40.6H0.527222L13.4911 4.37166C14.3062 2.09371 16.2799 0.600006 18.4747 0.600006Z" fill="#341492"/><path d="M29.154 0.600006L26.1412 9.01927L25.2335 0.600006H29.154Z" fill="#341492" fill-opacity="0.3"/><path d="M35.913 0.600006H25.2335L29.5022 12.5291C37.1973 13.7081 43.1253 21.0861 43.1253 30.0118C43.1253 33.9845 41.9509 37.6506 39.9691 40.6H53.8604L40.8966 4.37167C40.0815 2.09371 38.1078 0.600006 35.913 0.600006Z" fill="#341492"/><path d="M16.57 39.4471C14.745 36.8481 13.6567 33.572 13.6567 30.0117C13.6567 21.5649 19.7824 14.7176 27.3387 14.7176C34.8951 14.7176 41.0207 21.5649 41.0207 30.0117C41.0207 33.572 39.9324 36.8481 38.1074 39.4471C35.1114 37.2167 31.3816 35.894 27.3387 35.894C23.2958 35.894 19.566 37.2167 16.57 39.4471Z" fill="#9175E6"/></g>
        <g id="logotype" transform="translate(54, 20.5)"></g>
        
      </svg>
    