<svg viewBox="0 0 257 43" xmlns="http://www.w3.org/2000/svg" data-logo="logo">
        <g transform="translate(0, 1) rotate(0)" id="logogram" style="opacity: 1;"><path fill="#341492" d="M18.4747 0.600006H29.1542L24.8675 12.5796C17.3225 13.9055 11.5517 21.2053 11.5517 30.0118C11.5517 33.9845 12.7261 37.6506 14.7079 40.6H0.527222L13.4911 4.37166C14.3062 2.09371 16.2799 0.600006 18.4747 0.600006Z"></path><path fill-opacity="0.3" fill="#341492" d="M29.154 0.600006L26.1412 9.01927L25.2335 0.600006H29.154Z"></path><path fill="#341492" d="M35.913 0.600006H25.2335L29.5022 12.5291C37.1973 13.7081 43.1253 21.0861 43.1253 30.0118C43.1253 33.9845 41.9509 37.6506 39.9691 40.6H53.8604L40.8966 4.37167C40.0815 2.09371 38.1078 0.600006 35.913 0.600006Z"></path><path fill="#9175E6" d="M16.57 39.4471C14.745 36.8481 13.6567 33.572 13.6567 30.0117C13.6567 21.5649 19.7824 14.7176 27.3387 14.7176C34.8951 14.7176 41.0207 21.5649 41.0207 30.0117C41.0207 33.572 39.9324 36.8481 38.1074 39.4471C35.1114 37.2167 31.3816 35.894 27.3387 35.894C23.2958 35.894 19.566 37.2167 16.57 39.4471Z"></path></g>
        <g transform="translate(60, 1.5)" id="logotype" style="opacity: 1;"><path d="M11.95 33L7.05 33L16.38 8.50L20.68 8.50L30.05 33L25.16 33L23.22 27.82L13.86 27.82L11.95 33ZM17.80 17.11L15.33 23.67L21.72 23.67L19.27 17.11Q19.14 16.81 19.00 16.44Q18.86 16.08 18.74 15.70Q18.62 15.32 18.53 15.04L18.53 15.04Q18.44 15.32 18.32 15.70Q18.20 16.08 18.06 16.44Q17.92 16.81 17.80 17.11L17.80 17.11ZM36.98 33L32.60 33L32.60 9.71L36.98 7.73L36.98 33ZM47.53 40.45L47.53 40.45L45.11 36.80Q47.67 36.61 49.08 36.22Q50.49 35.84 51.05 35.12Q51.61 34.40 51.61 33.24L51.61 33.24L51.61 31.95Q50.24 33.42 47.76 33.42L47.76 33.42Q45.43 33.42 43.75 32.29Q42.07 31.16 41.17 29.05Q40.27 26.95 40.27 24.04L40.27 24.04Q40.27 21.20 41.20 19.10Q42.14 17.00 43.83 15.85Q45.52 14.69 47.79 14.69L47.79 14.69Q48.98 14.69 49.97 15.06Q50.96 15.43 51.61 16.13L51.61 16.13L51.61 15.11L55.96 15.11L55.96 31.39Q55.96 33.77 55.53 35.41Q55.09 37.06 54.10 38.11Q53.11 39.16 51.50 39.71Q49.89 40.26 47.53 40.45ZM48.47 29.24L48.47 29.24Q49.40 29.24 50.21 28.81Q51.03 28.38 51.61 27.64L51.61 27.64L51.61 20.43Q51.12 19.75 50.26 19.31Q49.40 18.86 48.53 18.86L48.53 18.86Q46.64 18.86 45.65 20.18Q44.66 21.50 44.66 24.04L44.66 24.04Q44.66 25.68 45.10 26.85Q45.55 28.01 46.41 28.63Q47.27 29.24 48.47 29.24ZM67.23 33.42L67.23 33.42Q63.45 33.42 61.27 30.92Q59.08 28.41 59.08 24.07L59.08 24.07Q59.08 21.20 60.08 19.10Q61.07 16.99 62.90 15.84Q64.73 14.69 67.23 14.69L67.23 14.69Q69.72 14.69 71.54 15.83Q73.36 16.97 74.34 19.07Q75.32 21.17 75.32 24.06L75.32 24.06Q75.32 26.96 74.35 29.06Q73.38 31.16 71.56 32.29Q69.74 33.42 67.23 33.42ZM67.23 29.24L67.23 29.24Q69.00 29.24 69.98 27.87Q70.96 26.51 70.96 24.06L70.96 24.06Q70.96 21.61 69.97 20.23Q68.98 18.86 67.23 18.86L67.23 18.86Q65.47 18.86 64.47 20.24Q63.47 21.63 63.47 24.07L63.47 24.07Q63.47 26.49 64.47 27.86Q65.47 29.24 67.23 29.24ZM83.16 33L78.63 33L78.63 8.50L89.77 8.50Q92.84 8.50 94.61 9.56Q96.39 10.62 97.15 12.35Q97.91 14.08 97.91 16.08L97.91 16.08Q97.91 17.46 97.38 18.88Q96.84 20.29 95.76 21.43Q94.67 22.57 93.03 23.11L93.03 23.11L97.86 33L92.77 33L88.13 23.73L83.16 23.73L83.16 33ZM83.16 12.77L83.16 19.45L89.84 19.45Q91.12 19.45 91.86 18.97Q92.61 18.49 92.92 17.72Q93.24 16.95 93.24 16.09L93.24 16.09Q93.24 15.32 92.94 14.55Q92.64 13.78 91.91 13.28Q91.17 12.77 89.84 12.77L89.84 12.77L83.16 12.77ZM105.56 33L101.18 33L101.18 9.74L105.56 7.73L105.56 16.85Q106.42 15.76 107.61 15.23Q108.81 14.69 110.35 14.69L110.35 14.69Q112.42 14.69 113.81 15.56Q115.20 16.43 115.90 18.03Q116.60 19.63 116.60 21.85L116.60 21.85L116.60 33L112.24 33L112.24 23.20Q112.24 20.99 111.49 19.93Q110.74 18.86 109.04 18.86L109.04 18.86Q107.25 18.86 106.41 19.90Q105.56 20.94 105.56 23.13L105.56 23.13L105.56 33ZM127.26 39.79L122.74 39.79L125.45 32.69L118.75 15.11L123.25 15.11L127.15 25.58Q127.31 25.95 127.45 26.38Q127.59 26.82 127.71 27.26L127.71 27.26Q127.82 26.82 127.97 26.39Q128.12 25.96 128.27 25.58L128.27 25.58L132.17 15.11L136.67 15.11L127.26 39.79ZM144.20 33.42L144.20 33.42Q142.06 33.42 141.00 32.25Q139.93 31.07 139.93 28.75L139.93 28.75L139.93 18.95L137.32 18.95L137.32 15.11L139.93 15.11L139.93 9.81L144.27 7.73L144.27 15.11L148.33 15.11L148.33 18.95L144.27 18.95L144.27 27.96Q144.27 28.80 144.61 29.20Q144.95 29.61 145.69 29.61L145.69 29.61Q146.98 29.61 148.52 28.80L148.52 28.80L148.01 32.62Q147.21 33.02 146.26 33.22Q145.32 33.42 144.20 33.42ZM155.69 33L151.32 33L151.32 9.74L155.69 7.73L155.69 16.85Q156.55 15.76 157.75 15.23Q158.95 14.69 160.49 14.69L160.49 14.69Q162.56 14.69 163.95 15.56Q165.34 16.43 166.04 18.03Q166.74 19.63 166.74 21.85L166.74 21.85L166.74 33L162.38 33L162.38 23.20Q162.38 20.99 161.63 19.93Q160.88 18.86 159.18 18.86L159.18 18.86Q157.39 18.86 156.54 19.90Q155.69 20.94 155.69 23.13L155.69 23.13L155.69 33ZM175.01 33L170.64 33L170.64 15.11L175.01 15.11L175.01 16.78Q175.87 15.69 176.95 15.19Q178.03 14.69 179.39 14.69L179.39 14.69Q180.98 14.69 182.12 15.34Q183.26 15.99 183.89 17.23L183.89 17.23Q184.78 16.01 186.18 15.35Q187.58 14.69 189.35 14.69L189.35 14.69Q192.64 14.69 194.32 16.46Q196.00 18.23 196.00 21.71L196.00 21.71L196.00 33L191.64 33L191.64 23.22Q191.64 20.98 190.91 19.92Q190.17 18.86 188.63 18.86L188.63 18.86Q187.58 18.86 186.89 19.33Q186.20 19.80 185.85 20.76Q185.50 21.71 185.50 23.16L185.50 23.16L185.50 33L181.14 33L181.14 23.22Q181.14 20.96 180.42 19.91Q179.70 18.86 178.15 18.86L178.15 18.86Q176.56 18.86 175.78 19.89Q175.01 20.92 175.01 23.09L175.01 23.09L175.01 33Z" fill="#341492"></path></g>
        
      </svg>